<svg id="visual" viewBox="0 0 960 540" width="960" height="540" xmlns="http://www.w3.org/2000/svg" xmlns:xlink="http://www.w3.org/1999/xlink" version="1.1"><path d="M0 200L7.7 214.8C15.3 229.7 30.7 259.3 45.8 263.5C61 267.7 76 246.3 91.2 207.2C106.3 168 121.7 111 137 115.3C152.3 119.7 167.7 185.3 183 193.7C198.3 202 213.7 153 228.8 132.5C244 112 259 120 274.2 133.2C289.3 146.3 304.7 164.7 320 170.2C335.3 175.7 350.7 168.3 365.8 154.2C381 140 396 119 411.2 98.5C426.3 78 441.7 58 457 61.8C472.3 65.7 487.7 93.3 503 121.2C518.3 149 533.7 177 548.8 167.5C564 158 579 111 594.2 98.5C609.3 86 624.7 108 640 122.3C655.3 136.7 670.7 143.3 685.8 130.7C701 118 716 86 731.2 85.3C746.3 84.7 761.7 115.3 777 146.3C792.3 177.3 807.7 208.7 823 195.8C838.3 183 853.7 126 868.8 103.7C884 81.3 899 93.7 914.2 125.8C929.3 158 944.7 210 952.3 236L960 262L960 541L952.3 541C944.7 541 929.3 541 914.2 541C899 541 884 541 868.8 541C853.7 541 838.3 541 823 541C807.7 541 792.3 541 777 541C761.7 541 746.3 541 731.2 541C716 541 701 541 685.8 541C670.7 541 655.3 541 640 541C624.7 541 609.3 541 594.2 541C579 541 564 541 548.8 541C533.7 541 518.3 541 503 541C487.7 541 472.3 541 457 541C441.7 541 426.3 541 411.2 541C396 541 381 541 365.8 541C350.7 541 335.3 541 320 541C304.7 541 289.3 541 274.2 541C259 541 244 541 228.8 541C213.7 541 198.3 541 183 541C167.7 541 152.3 541 137 541C121.7 541 106.3 541 91.2 541C76 541 61 541 45.8 541C30.7 541 15.3 541 7.7 541L0 541Z" fill="#b2e1c6"></path><path d="M0 194L7.7 187.2C15.3 180.3 30.7 166.7 45.8 153.7C61 140.7 76 128.3 91.2 133.7C106.3 139 121.7 162 137 194.7C152.3 227.3 167.7 269.7 183 271.2C198.3 272.7 213.7 233.3 228.8 215.8C244 198.3 259 202.7 274.2 209C289.3 215.3 304.7 223.7 320 241.8C335.3 260 350.7 288 365.8 288.2C381 288.3 396 260.7 411.2 251.3C426.3 242 441.7 251 457 255.2C472.3 259.3 487.7 258.7 503 235.7C518.3 212.7 533.7 167.3 548.8 141.7C564 116 579 110 594.2 108.8C609.3 107.7 624.7 111.3 640 109.5C655.3 107.7 670.7 100.3 685.8 114C701 127.7 716 162.3 731.2 165.3C746.3 168.3 761.7 139.7 777 140.8C792.3 142 807.7 173 823 193.2C838.3 213.3 853.7 222.7 868.8 236C884 249.3 899 266.7 914.2 268.2C929.3 269.7 944.7 255.3 952.3 248.2L960 241L960 541L952.3 541C944.7 541 929.3 541 914.2 541C899 541 884 541 868.8 541C853.7 541 838.3 541 823 541C807.7 541 792.3 541 777 541C761.7 541 746.3 541 731.2 541C716 541 701 541 685.8 541C670.7 541 655.3 541 640 541C624.7 541 609.3 541 594.2 541C579 541 564 541 548.8 541C533.7 541 518.3 541 503 541C487.7 541 472.3 541 457 541C441.7 541 426.3 541 411.2 541C396 541 381 541 365.8 541C350.7 541 335.3 541 320 541C304.7 541 289.3 541 274.2 541C259 541 244 541 228.8 541C213.7 541 198.3 541 183 541C167.7 541 152.3 541 137 541C121.7 541 106.3 541 91.2 541C76 541 61 541 45.8 541C30.7 541 15.3 541 7.7 541L0 541Z" fill="#7eb3aa"></path><path d="M0 235L7.7 224.5C15.3 214 30.7 193 45.8 205.3C61 217.7 76 263.3 91.2 290.7C106.3 318 121.7 327 137 325C152.3 323 167.7 310 183 306.8C198.3 303.7 213.7 310.3 228.8 323.5C244 336.7 259 356.3 274.2 352.8C289.3 349.3 304.7 322.7 320 314.8C335.3 307 350.7 318 365.8 298.2C381 278.3 396 227.7 411.2 229.2C426.3 230.7 441.7 284.3 457 289.7C472.3 295 487.7 252 503 252.8C518.3 253.7 533.7 298.3 548.8 312.8C564 327.3 579 311.7 594.2 311.5C609.3 311.3 624.7 326.7 640 337.3C655.3 348 670.7 354 685.8 352.8C701 351.7 716 343.3 731.2 346C746.3 348.7 761.7 362.3 777 363C792.3 363.7 807.7 351.3 823 349.8C838.3 348.3 853.7 357.7 868.8 333.7C884 309.7 899 252.3 914.2 236.8C929.3 221.3 944.7 247.7 952.3 260.8L960 274L960 541L952.3 541C944.7 541 929.3 541 914.2 541C899 541 884 541 868.8 541C853.7 541 838.3 541 823 541C807.7 541 792.3 541 777 541C761.7 541 746.3 541 731.2 541C716 541 701 541 685.8 541C670.7 541 655.3 541 640 541C624.7 541 609.3 541 594.2 541C579 541 564 541 548.8 541C533.7 541 518.3 541 503 541C487.7 541 472.3 541 457 541C441.7 541 426.3 541 411.2 541C396 541 381 541 365.8 541C350.7 541 335.3 541 320 541C304.7 541 289.3 541 274.2 541C259 541 244 541 228.8 541C213.7 541 198.3 541 183 541C167.7 541 152.3 541 137 541C121.7 541 106.3 541 91.2 541C76 541 61 541 45.8 541C30.7 541 15.3 541 7.7 541L0 541Z" fill="#57848a"></path><path d="M0 397L7.7 401C15.3 405 30.7 413 45.8 418.8C61 424.7 76 428.3 91.2 428.5C106.3 428.7 121.7 425.3 137 410C152.3 394.7 167.7 367.3 183 339.3C198.3 311.3 213.7 282.7 228.8 280.7C244 278.7 259 303.3 274.2 313C289.3 322.7 304.7 317.3 320 327.2C335.3 337 350.7 362 365.8 362C381 362 396 337 411.2 330C426.3 323 441.7 334 457 342.7C472.3 351.3 487.7 357.7 503 343.7C518.3 329.7 533.7 295.3 548.8 274.8C564 254.3 579 247.7 594.2 274.5C609.3 301.3 624.7 361.7 640 369.8C655.3 378 670.7 334 685.8 322.2C701 310.3 716 330.7 731.2 339.8C746.3 349 761.7 347 777 341.2C792.3 335.3 807.7 325.7 823 312.2C838.3 298.7 853.7 281.3 868.8 282.2C884 283 899 302 914.2 304C929.3 306 944.7 291 952.3 283.5L960 276L960 541L952.3 541C944.7 541 929.3 541 914.2 541C899 541 884 541 868.8 541C853.7 541 838.3 541 823 541C807.7 541 792.3 541 777 541C761.7 541 746.3 541 731.2 541C716 541 701 541 685.8 541C670.7 541 655.3 541 640 541C624.7 541 609.3 541 594.2 541C579 541 564 541 548.8 541C533.7 541 518.3 541 503 541C487.7 541 472.3 541 457 541C441.7 541 426.3 541 411.2 541C396 541 381 541 365.8 541C350.7 541 335.3 541 320 541C304.7 541 289.3 541 274.2 541C259 541 244 541 228.8 541C213.7 541 198.3 541 183 541C167.7 541 152.3 541 137 541C121.7 541 106.3 541 91.2 541C76 541 61 541 45.8 541C30.7 541 15.3 541 7.7 541L0 541Z" fill="#395865"></path><path d="M0 451L7.7 450.8C15.3 450.7 30.7 450.3 45.8 437.8C61 425.3 76 400.7 91.2 385.2C106.3 369.7 121.7 363.3 137 365.7C152.3 368 167.7 379 183 380.3C198.3 381.7 213.7 373.3 228.8 385.2C244 397 259 429 274.2 447.8C289.3 466.7 304.7 472.3 320 454.2C335.3 436 350.7 394 365.8 369.7C381 345.3 396 338.7 411.2 345.3C426.3 352 441.7 372 457 394.3C472.3 416.7 487.7 441.3 503 428.8C518.3 416.3 533.7 366.7 548.8 342.8C564 319 579 321 594.2 326C609.3 331 624.7 339 640 355.3C655.3 371.7 670.7 396.3 685.8 400.7C701 405 716 389 731.2 397C746.3 405 761.7 437 777 449.7C792.3 462.3 807.7 455.7 823 446.7C838.3 437.7 853.7 426.3 868.8 407.3C884 388.3 899 361.7 914.2 364C929.3 366.3 944.7 397.7 952.3 413.3L960 429L960 541L952.3 541C944.7 541 929.3 541 914.2 541C899 541 884 541 868.8 541C853.7 541 838.3 541 823 541C807.7 541 792.3 541 777 541C761.7 541 746.3 541 731.2 541C716 541 701 541 685.8 541C670.7 541 655.3 541 640 541C624.7 541 609.3 541 594.2 541C579 541 564 541 548.8 541C533.7 541 518.3 541 503 541C487.7 541 472.3 541 457 541C441.7 541 426.3 541 411.2 541C396 541 381 541 365.8 541C350.7 541 335.3 541 320 541C304.7 541 289.3 541 274.2 541C259 541 244 541 228.8 541C213.7 541 198.3 541 183 541C167.7 541 152.3 541 137 541C121.7 541 106.3 541 91.2 541C76 541 61 541 45.8 541C30.7 541 15.3 541 7.7 541L0 541Z" fill="#21303d"></path><path d="M0 444L7.7 440.5C15.3 437 30.7 430 45.8 426.2C61 422.3 76 421.7 91.2 421C106.3 420.3 121.7 419.7 137 431.2C152.3 442.7 167.7 466.3 183 479.2C198.3 492 213.7 494 228.8 498.3C244 502.7 259 509.3 274.2 508.3C289.3 507.3 304.7 498.7 320 497.5C335.3 496.3 350.7 502.7 365.8 489.7C381 476.7 396 444.3 411.2 445C426.3 445.7 441.7 479.3 457 489C472.3 498.7 487.7 484.3 503 487C518.3 489.7 533.7 509.3 548.8 507.5C564 505.7 579 482.3 594.2 463.5C609.3 444.7 624.7 430.3 640 433.7C655.3 437 670.7 458 685.8 470.8C701 483.7 716 488.3 731.2 478.2C746.3 468 761.7 443 777 428.2C792.3 413.3 807.7 408.7 823 416.2C838.3 423.7 853.7 443.3 868.8 448.2C884 453 899 443 914.2 434.2C929.3 425.3 944.7 417.7 952.3 413.8L960 410L960 541L952.3 541C944.7 541 929.3 541 914.2 541C899 541 884 541 868.8 541C853.7 541 838.3 541 823 541C807.7 541 792.3 541 777 541C761.7 541 746.3 541 731.2 541C716 541 701 541 685.8 541C670.7 541 655.3 541 640 541C624.7 541 609.3 541 594.2 541C579 541 564 541 548.8 541C533.7 541 518.3 541 503 541C487.7 541 472.3 541 457 541C441.7 541 426.3 541 411.2 541C396 541 381 541 365.8 541C350.7 541 335.3 541 320 541C304.7 541 289.3 541 274.2 541C259 541 244 541 228.8 541C213.7 541 198.3 541 183 541C167.7 541 152.3 541 137 541C121.7 541 106.3 541 91.2 541C76 541 61 541 45.8 541C30.7 541 15.3 541 7.7 541L0 541Z" fill="#050816"></path></svg>